<svg width="282" height="60" xmlns="http://www.w3.org/2000/svg" xmlns:xlink="http://www.w3.org/1999/xlink" xml:space="preserve" overflow="hidden"><defs><clipPath id="clip0"><rect x="48" y="911" width="282" height="60"/></clipPath></defs><g clip-path="url(#clip0)" transform="translate(-48 -911)"><path d="M29.8991 59.9569C13.4124 59.9569 0 46.5079 0 29.979 0 13.4479 13.4124 0 29.8991 0 38.1352 0 46.0883 3.45604 51.7208 9.48248L49.3635 11.6977C44.2649 6.24396 37.3528 3.23962 29.8991 3.23962 15.1948 3.23962 3.23075 15.2359 3.23075 29.979 3.23075 44.7221 15.1948 56.7173 29.8991 56.7173 36.0876 56.7173 42.0285 54.5819 46.7842 50.6775L41.8243 43.9264C38.8877 45.913 34.7424 47.8996 29.8991 47.8996 20.0448 47.8996 12.0273 39.861 12.0273 29.979 12.0273 20.097 20.0448 12.0584 29.8991 12.0584 33.9755 12.0584 37.8655 13.428 41.0175 15.9451L43.1661 13.5578C39.3394 10.5712 34.4905 8.82212 29.8991 8.82212 18.2646 8.82212 8.79881 18.3124 8.79881 29.979 8.79881 41.6445 18.2646 51.1348 29.8991 51.1348 33.8257 51.1348 37.6569 50.0471 40.9797 47.9884L42.6789 50.7441C38.8444 53.1192 34.4261 54.3755 29.8991 54.3755 16.4833 54.3755 5.56807 43.4303 5.56807 29.979 5.56807 16.5255 16.4833 5.58139 29.8991 5.58139 35.8689 5.58139 41.9453 7.99418 46.5722 12.1994L47.7675 13.2848 41.2361 20.5387 40.0353 19.3823C37.2973 16.7475 33.697 15.2969 29.8991 15.2969 21.8261 15.2969 15.2581 21.8838 15.2581 29.979 15.2581 38.0731 21.8261 44.6589 29.8991 44.6589 33.5882 44.6589 37.5992 43.1417 41.1984 40.3904L42.5047 39.3905 51.1348 51.1326 50.0616 52.117C44.5412 57.1734 37.3816 59.9569 29.8991 59.9569Z" fill="#E21B23" transform="matrix(1.00033 0 0 1 48 911.022)"/><path d="M65.7714 51.5266C65.3097 51.5266 64.9368 51.3701 64.9368 51.177L64.9368 8.77995C64.9368 8.58683 65.3097 8.43146 65.7714 8.43146 66.2342 8.43146 66.6082 8.58683 66.6082 8.77995L66.6082 51.177C66.6082 51.3701 66.2342 51.5266 65.7714 51.5266Z" transform="matrix(1.00033 0 0 1 48 911.022)"/><path d="M118.461 31.4828C118.4 30.8869 118.266 30.3275 118.061 29.8059 117.857 29.2809 117.582 28.8303 117.234 28.4508 116.885 28.0723 116.471 27.7682 115.989 27.5429 115.509 27.3165 114.962 27.2033 114.348 27.2033 113.201 27.2033 112.255 27.5984 111.507 28.3886 110.761 29.1777 110.306 30.2087 110.143 31.4828L118.461 31.4828ZM114.776 41.114C113.611 41.114 112.521 40.9087 111.507 40.4992 110.496 40.0885 109.614 39.5136 108.868 38.7767 108.121 38.0376 107.532 37.1497 107.104 36.1142 106.672 35.0787 106.459 33.9345 106.459 32.6826L106.459 32.6204C106.459 31.4518 106.652 30.3541 107.043 29.3264 107.43 28.302 107.977 27.4031 108.684 26.6351 109.39 25.8648 110.224 25.26 111.186 24.8194 112.147 24.3788 113.214 24.1568 114.377 24.1568 115.666 24.1568 116.798 24.3932 117.771 24.8649 118.742 25.3377 119.551 25.9725 120.196 26.7738 120.839 27.5729 121.326 28.5018 121.653 29.5573 121.98 30.6149 122.146 31.7292 122.146 32.8979 122.146 33.0621 122.139 33.2319 122.129 33.4062 122.119 33.5804 122.102 33.7591 122.084 33.9434L110.173 33.9434C110.376 35.2785 110.904 36.2984 111.754 37.0065 112.603 37.7146 113.631 38.0686 114.839 38.0686 115.76 38.0686 116.558 37.9033 117.234 37.5759 117.909 37.2473 118.573 36.7657 119.228 36.1286L121.408 38.0686C120.63 38.9909 119.704 39.7301 118.63 40.2839 117.555 40.8388 116.271 41.114 114.776 41.114Z" transform="matrix(1.00033 0 0 1 48 911.022)"/><path d="M135.253 41.114C134.128 41.114 133.078 40.8954 132.108 40.4537 131.134 40.012 130.292 39.4237 129.578 38.6835 128.865 37.9454 128.308 37.0831 127.905 36.0976 127.503 35.1131 127.302 34.0677 127.302 32.96L127.302 32.8979C127.302 31.7903 127.503 30.7426 127.905 29.7582 128.308 28.7737 128.865 27.9014 129.578 27.1423 130.292 26.3842 131.134 25.7827 132.108 25.3421 133.078 24.9015 134.128 24.6806 135.253 24.6806 135.989 24.6806 136.66 24.7583 137.265 24.917 137.867 25.0735 138.425 25.2877 138.938 25.5607 139.448 25.8326 139.913 26.1434 140.333 26.4952 140.753 26.8437 141.146 27.2144 141.515 27.6039L140.441 28.7138C139.766 28.0157 139.019 27.4086 138.2 26.8959 137.382 26.3842 136.388 26.1279 135.222 26.1279 134.322 26.1279 133.487 26.2999 132.721 26.6484 131.953 26.9946 131.287 27.4685 130.726 28.0734 130.163 28.6738 129.717 29.3852 129.39 30.201 129.063 31.02 128.899 31.8979 128.899 32.8368L128.899 32.8979C128.899 33.8368 129.068 34.7202 129.406 35.5471 129.743 36.375 130.203 37.0953 130.786 37.7079 131.37 38.3206 132.05 38.8011 132.828 39.1485 133.605 39.4948 134.444 39.669 135.345 39.669 136.45 39.669 137.438 39.4182 138.306 38.9143 139.178 38.4116 139.94 37.7912 140.595 37.0509L141.639 37.9765C140.84 38.8788 139.934 39.6269 138.921 40.2217 137.91 40.8177 136.685 41.114 135.253 41.114Z" transform="matrix(1.00033 0 0 1 48 911.022)"/><path d="M154.867 39.669C155.794 39.669 156.653 39.4903 157.444 39.1319 158.235 38.7756 158.914 38.295 159.479 37.6913 160.046 37.0898 160.487 36.3795 160.806 35.5637 161.124 34.7469 161.283 33.8779 161.283 32.9589L161.283 32.8979C161.283 31.9567 161.119 31.0744 160.79 30.2465 160.461 29.4196 160.005 28.7005 159.416 28.0867 158.831 27.4741 158.142 26.9946 157.351 26.6484 156.56 26.2999 155.711 26.1268 154.807 26.1268 153.882 26.1268 153.024 26.3054 152.231 26.6628 151.439 27.0213 150.761 27.5007 150.195 28.1034 149.63 28.706 149.187 29.4152 148.87 30.2332 148.551 31.0489 148.391 31.9179 148.391 32.8368L148.391 32.8979C148.391 33.8368 148.557 34.7202 148.884 35.5471 149.214 36.375 149.671 37.0964 150.257 37.7079 150.843 38.3206 151.532 38.8011 152.323 39.1485 153.114 39.4948 153.964 39.669 154.867 39.669ZM154.807 41.1151C153.641 41.1151 152.57 40.8954 151.6 40.4537 150.626 40.012 149.783 39.4237 149.066 38.6835 148.35 37.9454 147.792 37.0831 147.393 36.0976 146.994 35.1131 146.794 34.0677 146.794 32.96L146.794 32.8979C146.794 31.7903 146.994 30.7426 147.393 29.7582 147.792 28.7737 148.356 27.9014 149.082 27.1423 149.808 26.3842 150.662 25.7827 151.644 25.3421 152.627 24.9015 153.701 24.6806 154.867 24.6806 156.036 24.6806 157.105 24.9015 158.076 25.3421 159.049 25.7827 159.892 26.3731 160.609 27.1112 161.324 27.8503 161.881 28.7138 162.282 29.696 162.68 30.6815 162.88 31.7281 162.88 32.8368L162.88 32.8979C162.88 34.0055 162.68 35.0521 162.282 36.0376 161.881 37.0232 161.319 37.8933 160.594 38.6524 159.867 39.4115 159.012 40.012 158.03 40.4537 157.048 40.8954 155.974 41.1151 154.807 41.1151Z" transform="matrix(1.00033 0 0 1 48 911.022)"/><path d="M169.481 25.0502 170.985 25.0502 170.985 27.9735C171.517 27.0501 172.234 26.271 173.134 25.6351 174.035 24.998 175.201 24.6806 176.632 24.6806 177.616 24.6806 178.495 24.8393 179.273 25.1579 180.051 25.4753 180.711 25.9225 181.254 26.4963 181.795 27.0712 182.205 27.7538 182.482 28.5429 182.757 29.3331 182.895 30.1999 182.895 31.1443L182.895 40.7456 181.391 40.7456 181.391 31.4218C181.391 29.8003 180.961 28.5018 180.103 27.5274 179.243 26.5518 178.014 26.0657 176.419 26.0657 175.641 26.0657 174.924 26.2022 174.269 26.4797 173.615 26.7571 173.041 27.1423 172.551 27.6339 172.06 28.1289 171.677 28.7182 171.399 29.4052 171.123 30.0911 170.985 30.8469 170.985 31.6671L170.985 40.7456 169.481 40.7456 169.481 25.0502Z" transform="matrix(1.00033 0 0 1 48 911.022)"/><path d="M190.261 25.0502 191.765 25.0502 191.765 27.9735C192.298 27.0501 193.015 26.271 193.915 25.6351 194.815 24.998 195.982 24.6806 197.414 24.6806 198.395 24.6806 199.275 24.8393 200.053 25.1579 200.83 25.4753 201.492 25.9225 202.034 26.4963 202.575 27.0712 202.985 27.7538 203.263 28.5429 203.537 29.3331 203.676 30.1999 203.676 31.1443L203.676 40.7456 202.173 40.7456 202.173 31.4218C202.173 29.8003 201.741 28.5018 200.883 27.5274 200.023 26.5518 198.795 26.0657 197.199 26.0657 196.422 26.0657 195.705 26.2022 195.049 26.4797 194.394 26.7571 193.821 27.1423 193.331 27.6339 192.84 28.1289 192.455 28.7182 192.18 29.4052 191.904 30.0911 191.765 30.8469 191.765 31.6671L191.765 40.7456 190.261 40.7456 190.261 25.0502Z" transform="matrix(1.00033 0 0 1 48 911.022)"/><path d="M222.984 32.1587C222.923 31.3596 222.764 30.595 222.506 29.8658 222.25 29.1377 221.89 28.4918 221.43 27.928 220.967 27.3642 220.399 26.9114 219.722 26.5729 219.045 26.2355 218.253 26.0657 217.352 26.0657 216.571 26.0657 215.843 26.2189 215.166 26.5263 214.489 26.8348 213.898 27.2599 213.397 27.8048 212.894 28.3475 212.478 28.9946 212.149 29.7437 211.821 30.4929 211.627 31.2964 211.566 32.1587L222.984 32.1587ZM217.661 41.114C216.635 41.114 215.655 40.9187 214.723 40.5291 213.789 40.1407 212.967 39.5858 212.26 38.8677 211.552 38.1497 210.995 37.2884 210.584 36.2829 210.173 35.2785 209.968 34.1598 209.968 32.929L209.968 32.8668C209.968 31.7392 210.157 30.6771 210.537 29.6827 210.914 28.686 211.436 27.8193 212.102 27.0812 212.767 26.3421 213.549 25.7572 214.451 25.3266 215.351 24.8959 216.332 24.6806 217.397 24.6806 218.502 24.6806 219.494 24.8915 220.375 25.3099 221.256 25.7316 222.007 26.3121 222.632 27.0501 223.255 27.7893 223.735 28.6561 224.073 29.6505 224.412 30.646 224.58 31.7292 224.58 32.8979L224.58 33.2208C224.58 33.2941 224.57 33.3895 224.55 33.5127L211.566 33.5127C211.627 34.4927 211.842 35.3617 212.21 36.1164 212.581 36.8711 213.042 37.5137 213.595 38.0442 214.15 38.5769 214.781 38.9798 215.49 39.2551 216.197 39.5325 216.942 39.669 217.721 39.669 218.952 39.669 219.993 39.4326 220.844 38.9609 221.695 38.4882 222.451 37.9033 223.107 37.2074L224.15 38.1297C223.352 38.9909 222.444 39.7045 221.43 40.2672 220.414 40.8332 219.157 41.114 217.661 41.114Z" transform="matrix(1.00033 0 0 1 48 911.022)"/><path d="M237.81 41.114C236.683 41.114 235.634 40.8954 234.664 40.4537 233.69 40.012 232.848 39.4237 232.134 38.6835 231.421 37.9454 230.863 37.0831 230.462 36.0976 230.059 35.1131 229.858 34.0677 229.858 32.96L229.858 32.8979C229.858 31.7903 230.059 30.7426 230.462 29.7582 230.863 28.7737 231.421 27.9014 232.134 27.1423 232.848 26.3842 233.69 25.7827 234.664 25.3421 235.634 24.9015 236.683 24.6806 237.81 24.6806 238.545 24.6806 239.216 24.7583 239.821 24.917 240.423 25.0735 240.981 25.2877 241.492 25.5607 242.003 25.8326 242.469 26.1434 242.89 26.4952 243.309 26.8437 243.703 27.2144 244.071 27.6039L242.996 28.7138C242.323 28.0157 241.574 27.4086 240.757 26.8959 239.937 26.3842 238.944 26.1279 237.779 26.1279 236.877 26.1279 236.044 26.2999 235.277 26.6484 234.509 26.9946 233.843 27.4685 233.281 28.0734 232.719 28.6738 232.274 29.3852 231.946 30.201 231.619 31.02 231.456 31.8979 231.456 32.8368L231.456 32.8979C231.456 33.8368 231.624 34.7202 231.962 35.5471 232.3 36.375 232.759 37.0953 233.343 37.7079 233.925 38.3206 234.606 38.8011 235.384 39.1485 236.162 39.4948 237.001 39.669 237.901 39.669 239.006 39.669 239.995 39.4182 240.863 38.9143 241.734 38.4116 242.496 37.7912 243.15 37.0509L244.195 37.9765C243.396 38.8788 242.49 39.6269 241.478 40.2217 240.465 40.8177 239.242 41.114 237.81 41.114Z" transform="matrix(1.00033 0 0 1 48 911.022)"/><path d="M255.645 41.0241C255.03 41.0241 254.459 40.9409 253.926 40.7766 253.393 40.6135 252.929 40.3505 252.529 39.992 252.129 39.6324 251.818 39.1818 251.594 38.638 251.368 38.0931 251.256 37.4527 251.256 36.7135L251.256 26.4342 248.983 26.4342 248.983 25.0502 251.256 25.0502 251.256 20.0326 252.759 20.0326 252.759 25.0502 258.255 25.0502 258.255 26.4342 252.759 26.4342 252.759 36.5359C252.759 37.6624 253.051 38.4504 253.634 38.8999 254.218 39.3516 254.969 39.5758 255.89 39.5758 256.279 39.5758 256.648 39.5381 256.997 39.4593 257.343 39.3827 257.744 39.2473 258.193 39.0531L258.193 40.4681C257.784 40.6535 257.381 40.7911 256.98 40.8854 256.582 40.9764 256.137 41.0241 255.645 41.0241Z" transform="matrix(1.00033 0 0 1 48 911.022)"/><path d="M76.3659 18.5887 80.3147 18.5887 84.3246 35.6037 84.3867 35.6037 88.8616 18.5887 92.8415 18.5887 97.192 35.6037 97.2542 35.6037 101.389 18.5887 105.336 18.5887 99.2131 40.8388 95.2654 40.8388 90.8205 23.8238 90.7583 23.8238 86.2202 40.8388 82.2103 40.8388Z" transform="matrix(1.00033 0 0 1 48 911.022)"/><path d="M263.694 18.5887 267.578 18.5887 267.578 31.5528C267.578 34.5438 267.764 38.0032 272.801 38.0032 277.836 38.0032 278.023 34.5438 278.023 31.5528L278.023 18.5887 281.907 18.5887 281.907 32.8302C281.907 38.5337 278.271 41.3693 272.801 41.3693 267.331 41.3693 263.694 38.5337 263.694 32.8302L263.694 18.5887Z" transform="matrix(1.00033 0 0 1 48 911.022)"/></g></svg>